<?xml version="1.0" standalone="no"?>
<!DOCTYPE svg PUBLIC "-//W3C//DTD SVG 20010904//EN"
 "http://www.w3.org/TR/2001/REC-SVG-20010904/DTD/svg10.dtd">
<svg version="1.0" xmlns="http://www.w3.org/2000/svg"
 width="700.000000pt" height="700.000000pt" viewBox="0 0 700.000000 700.000000"
 preserveAspectRatio="xMidYMid meet">
<metadata>
Created by potrace 1.14, written by Peter Selinger 2001-2017
</metadata>
<g transform="translate(0.000000,700.000000) scale(0.100000,-0.100000)"
fill="#000000" stroke="none">
<path d="M4484 6381 c-137 -69 -337 -339 -474 -638 -76 -165 -354 -886 -556
-1443 -27 -74 -50 -126 -52 -117 -13 69 93 514 243 1017 125 417 140 496 133
698 -4 104 -9 136 -27 178 -27 61 -61 97 -115 119 -105 44 -184 -31 -320 -304
-123 -244 -309 -715 -470 -1189 -106 -313 -159 -489 -207 -697 -75 -328 -162
-548 -223 -570 -25 -8 -31 -6 -57 25 -41 49 -125 221 -215 445 -136 339 -186
422 -305 510 -95 70 -155 89 -279 89 -87 0 -119 -5 -185 -27 -44 -14 -89 -33
-99 -40 -34 -25 -23 -67 46 -188 262 -456 409 -929 488 -1564 43 -346 96 -539
214 -782 112 -229 201 -352 436 -603 119 -128 159 -177 164 -202 19 -102 46
-565 46 -794 0 -66 3 -162 6 -212 l7 -92 728 0 c661 0 729 1 729 16 0 18 -117
1033 -124 1079 -5 28 0 34 61 75 147 99 298 275 390 456 117 228 196 549 229
934 8 96 21 225 28 286 13 109 14 113 58 170 25 33 105 142 178 244 175 243
328 444 465 610 258 311 340 458 314 556 -15 51 -47 68 -122 62 -183 -16 -357
-146 -808 -606 -281 -286 -266 -286 -136 -6 104 225 223 458 304 598 204 350
363 730 380 912 15 155 -83 227 -213 158 -95 -50 -274 -216 -406 -374 -105
-127 -265 -381 -480 -765 -72 -126 -127 -221 -124 -210 21 71 187 576 309 935
190 563 260 845 260 1055 0 105 -12 151 -52 189 -44 42 -93 44 -167 7z"/>
</g>
</svg>
