<svg xmlns="http://www.w3.org/2000/svg" viewBox="0 0 405.45 405.45"><defs><style>.cls-1{fill:#e5e6e1;}.cls-2{fill:#4f7a9f;}.cls-3{fill:#2d4c73;}</style></defs><g id="Calque_2" data-name="Calque 2"><g id="Calque_1-2" data-name="Calque 1"><rect class="cls-1" width="405.45" height="405.45"/><g id="main"><path class="cls-2" d="M153.62,339.06c2.48,5.49,3.49,40.75,3.9,66.39h80l-7.76-66.39s23.47-12,32.53-42.69,2.58-46.13,9.86-63.28,22-31.86,42.83-56.48,19.49-34.12,2-26.16-61.8,59-61.8,59,19.66-45.57,30.45-63.32,26-50.74,21.52-58.79-19,7.7-28.86,17.76-50.41,85.82-50.41,85.82,17.51-56.5,26.57-81.56,17.45-54.48,15.34-66.91-18.51,1.39-29.07,19-48.06,122.48-48.06,122.48.44-3.1,1.69-20.22S206.81,110,212.87,90s6-42.54-6.25-41.58S160,152.8,156.86,167.11s-9.71,43.89-18.28,42.31-18.74-38.78-25.69-49.31c-14-21.28-34.38-11.2-37.55-9.66s24.25,28.68,32.23,101.69C113.9,310.06,149.67,330.28,153.62,339.06Z"/><path class="cls-3" d="M150.27,192.73A68.93,68.93,0,0,1,146,209.16a63.66,63.66,0,0,1-10.14,17,87.06,87.06,0,0,1-11.83,12.07c1.7-4,6-10.89,8.32-14.59,3.18-5.19,3.17-4.51,9.74-16.26C144.11,203.62,148.29,195.57,150.27,192.73Z"/><path class="cls-3" d="M155.84,338.06c-1.1-2.46-3.87-5.24-7.7-9.09-11.67-11.73-33.39-33.57-38.15-77.09-6-54.79-22.67-83.71-29.79-96.06-.83-1.44-1.67-2.9-2.19-3.92,8.35-3.64,22.4-6.28,32.85,9.55,2.44,3.69,5.42,11.17,8.58,19.08,7.46,18.69,12.44,30.13,18.7,31.28a5.86,5.86,0,0,0,1.17.11c8.49,0,14.14-17.75,19.93-44.3,1.55-7.11,10.8-36.12,21.22-63.64,5.87-15.52,11.13-28,15.65-37.14,7.58-15.34,10.58-15.94,10.7-16a4.92,4.92,0,0,1,4.57,1.93c4.31,5.35,4,20.71-.85,36.52l-.37,1.24c-6.35,20.9-17,55.87-18.22,72.91-1.22,16.67-1.66,19.93-1.67,20.06a2.43,2.43,0,0,0,4.7,1.16c.33-.93,33.57-93.28,42.43-111.38,12.79-26.11,23.55-34.7,27.68-34.11,1.45.21,2.07,2.08,2.33,3.62,1.7,10.07-4,34.62-15.23,65.67-9,24.83-26.44,81.1-26.61,81.67a2.43,2.43,0,0,0,4.5,1.81c.34-.67,33.62-66.94,50.05-85.28,15.47-17.26,21.43-19.43,23.61-19.19a1.59,1.59,0,0,1,1.32,1c1.22,2.17.5,9.53-5.16,23.66a238.74,238.74,0,0,1-16.32,32.67c-10.75,17.69-29.8,61.76-30.6,63.62A2.44,2.44,0,0,0,257,211c.44-.51,44.13-50.7,61-58.35,7.1-3.23,9.53-2.59,9.79-2.25.75,1-.32,7.66-14.64,24.61-13.48,15.95-22.55,28.62-30.55,39.79-4.26,6-8.28,11.57-12.34,16.77a2.35,2.35,0,0,0-.47,1,154.24,154.24,0,0,0-2,17.82c-.91,11.94-1.94,25.47-7.78,45.23-8.63,29.22-31.08,41.1-31.3,41.21a2.43,2.43,0,0,0-1.31,2.45l7.72,66.11H240l-7.6-65.06c5.47-3.28,24.23-16.18,32.26-43.33,6-20.26,7.08-34.67,7.95-46.24a157.81,157.81,0,0,1,1.85-16.7c4-5.14,7.94-10.64,12.11-16.46,7.94-11.1,16.95-23.69,30.3-39.48,6.26-7.42,10.75-13.71,13.34-18.71,2.88-5.56,3.36-9.48,1.46-12-2.42-3.19-7.55-2.95-15.69.75-12.65,5.75-38,32.38-52.32,48.05,6.68-14.88,17.23-37.68,24.06-48.92A244.68,244.68,0,0,0,304.41,114c8.55-21.33,5.79-26.24,4.89-27.85a6.47,6.47,0,0,0-5-3.46c-5.74-.63-14.32,5.78-27.76,20.79C266.15,115,249.91,143.83,238.58,165c5.77-18.15,13.26-41.28,18.19-54.88,5.52-15.28,18.1-52.49,15.44-68.15-1-6-4.47-7.34-6.43-7.62-4.13-.6-9.26,2.37-14.87,8.57-5.81,6.43-12,16.18-17.89,28.22-6.66,13.62-26.19,66.61-36.36,94.54.05-.61.1-1.23.14-1.88,1.21-16.5,12.14-52.51,18-71.85l.38-1.25c4.49-14.8,6.23-33.22,0-41A9.81,9.81,0,0,0,206.43,46c-2.79.22-6.69,2.56-14.51,18.28-4.59,9.23-9.93,21.88-15.89,37.6-10.55,27.84-20,57.37-21.55,64.68-1.35,6.18-3.86,17.69-7,26.83-4.79,13.86-8.07,13.67-8.43,13.6-.57-.1-2.71-1.05-6.69-8.84-2.81-5.52-5.64-12.6-8.38-19.46-3.25-8.15-6.32-15.84-9-19.95-6.26-9.48-14.79-14.49-24.69-14.49h-.09a36.43,36.43,0,0,0-15.83,4l0,0A2.86,2.86,0,0,0,72.78,150c-.54,1.77.4,3.4,3.2,8.25,7,12.09,23.29,40.38,29.17,94.15,4.94,45.22,27.45,67.85,39.53,80,3.21,3.22,6,6,6.72,7.65,2.08,4.61,3.23,35.8,3.7,65.39H160C159.56,379.48,158.52,344,155.84,338.06Z"/></g></g></g></svg>